<svg width="24" height="25" viewBox="0 0 24 25" fill="none" xmlns="http://www.w3.org/2000/svg">
<path d="M18.9 6.5C18.7 5.9 18.1 5.5 17.5 5.5H6.5C5.8 5.5 5.3 5.9 5.1 6.5L3 12.5V20.5C3 21 3.5 21.5 4 21.5H5C5.6 21.5 6 21 6 20.5V19.5H18V20.5C18 21 18.5 21.5 19 21.5H20C20.5 21.5 21 21 21 20.5V12.5L18.9 6.5ZM6.8 7.5H17.1L18.2 10.5H5.8L6.8 7.5ZM19 17.5H5V12.5H19V17.5ZM7.5 13.5C8.3 13.5 9 14.2 9 15C9 15.8 8.3 16.5 7.5 16.5C6.7 16.5 6 15.8 6 15C6 14.2 6.7 13.5 7.5 13.5ZM16.5 13.5C17.3 13.5 18 14.2 18 15C18 15.8 17.3 16.5 16.5 16.5C15.7 16.5 15 15.8 15 15C15 14.2 15.7 13.5 16.5 13.5Z" fill="black"/>
</svg>
