<svg width="24" height="25" viewBox="0 0 24 25" fill="none" xmlns="http://www.w3.org/2000/svg">
<path d="M2 12.5C2 18.023 6.477 22.5 12 22.5C17.523 22.5 22 18.023 22 12.5C22 6.977 17.523 2.5 12 2.5C7.9 2.5 4.375 4.968 2.832 8.5M2 5L2.5 9L6.5 8" stroke="black" stroke-width="1.5" stroke-linecap="round" stroke-linejoin="round"/>
<path d="M10.5 12.5H14.25C14.4798 12.5 14.7074 12.5453 14.9197 12.6332C15.132 12.7212 15.3249 12.8501 15.4874 13.0126C15.6499 13.1751 15.7788 13.368 15.8668 13.5803C15.9547 13.7926 16 14.0202 16 14.25C16 14.4798 15.9547 14.7074 15.8668 14.9197C15.7788 15.132 15.6499 15.3249 15.4874 15.4874C15.3249 15.6499 15.132 15.7788 14.9197 15.8668C14.7074 15.9547 14.4798 16 14.25 16H10.5M10.5 12.5V16M10.5 12.5H13.75C14.2141 12.5 14.6592 12.3156 14.9874 11.9874C15.3156 11.6592 15.5 11.2141 15.5 10.75C15.5 10.2859 15.3156 9.84075 14.9874 9.51256C14.6592 9.18437 14.2141 9 13.75 9H10.5M10.5 12.5V9M10.5 16H9M10.5 16V17.5M10.5 9H9M10.5 9V7.5M13.5 9V7.5M13.5 16V17.5" stroke="black" stroke-width="1.5" stroke-linecap="round" stroke-linejoin="round"/>
</svg>
