<svg width="225" height="96" viewBox="0 0 225 96" fill="none" xmlns="http://www.w3.org/2000/svg">
<path d="M176.049 13.6195H146.436L165.971 40.8133H197.206L224.155 0L191.122 32.7634L176.049 13.6195Z" fill="#FDFFFF"/>
<path d="M169.115 44.6466L146.436 71.4797H154.892L174.112 50.7799L187.95 71.4797H216.395L198.329 44.6466H169.115Z" fill="black"/>
<path d="M171.805 62.2798H169.115V64.9631H171.805V62.2798Z" fill="#FDFFFF"/>
<path d="M176.418 66.8797H173.727V69.563H176.418V66.8797Z" fill="#FDFFFF"/>
<path d="M171.805 66.8797H169.115V69.563H171.805V66.8797Z" fill="#FDFFFF"/>
<path d="M176.418 62.2798H173.727V64.9631H176.418V62.2798Z" fill="#FDFFFF"/>
<path d="M4.35516 70.713V24.6759L0 13.8576H22.8052C27.5563 13.8576 31.4891 14.5156 34.6037 15.8317C37.7183 17.0952 40.0411 19.2536 41.572 22.3069C43.1029 25.3603 43.8683 29.5191 43.8683 34.7835C43.8683 42.0484 42.1263 47.2865 38.6421 50.4977C35.158 53.709 29.879 55.3147 22.8052 55.3147H19.7962V70.713H4.35516ZM19.7962 44.0225C22.3301 44.0225 24.2041 43.3382 25.4183 41.9694C26.6852 40.6007 27.3187 38.1527 27.3187 34.6256C27.3187 31.9408 27.0812 29.914 26.6061 28.5452C26.1837 27.1765 25.4183 26.2552 24.3097 25.7814C23.2539 25.255 21.7494 24.9918 19.7962 24.9918V44.0225Z" fill="black"/>
<path d="M62.5033 70.713H48.2501V12.9889L62.5033 11.0938V70.713Z" fill="black"/>
<path d="M86.7945 71.5027C82.0962 71.5027 78.2953 70.713 75.3919 69.1337C72.5412 67.5544 70.456 65.0538 69.1363 61.6319C67.8693 58.1574 67.2359 53.6301 67.2359 48.0498C67.2359 42.4695 67.8693 37.9685 69.1363 34.5466C70.456 31.1248 72.5412 28.6242 75.3919 27.0449C78.2953 25.4656 82.0962 24.6759 86.7945 24.6759C91.5456 24.6759 95.3464 25.4656 98.1971 27.0449C101.048 28.6242 103.107 31.1248 104.373 34.5466C105.693 37.9685 106.353 42.4695 106.353 48.0498C106.353 53.6301 105.693 58.1574 104.373 61.6319C103.107 65.0538 101.048 67.5544 98.1971 69.1337C95.3464 70.713 91.5456 71.5027 86.7945 71.5027ZM86.7153 60.3685C88.5102 60.3685 89.7771 59.4209 90.5162 57.5257C91.2552 55.5779 91.6247 52.4456 91.6247 48.1288C91.6247 43.7593 91.2552 40.627 90.5162 38.7318C89.7771 36.784 88.5102 35.8101 86.7153 35.8101C84.9732 35.8101 83.7327 36.784 82.9936 38.7318C82.3074 40.627 81.9642 43.7593 81.9642 48.1288C81.9642 52.4456 82.3074 55.5779 82.9936 57.5257C83.7327 59.4209 84.9732 60.3685 86.7153 60.3685Z" fill="black"/>
<path d="M128.935 25.3076H137.566V35.968H128.935V55.6305C128.935 57.1045 129.305 58.1838 130.044 58.8681C130.835 59.5525 132.076 59.8947 133.765 59.8947C134.61 59.8947 135.349 59.8684 135.982 59.8157C136.616 59.7104 137.144 59.6051 137.566 59.4999V70.0023C136.299 70.4235 134.953 70.7657 133.528 71.0289C132.155 71.3447 130.756 71.5027 129.331 71.5027C124.474 71.5027 120.805 70.4761 118.324 68.423C115.896 66.3172 114.682 62.5795 114.682 57.2098V35.968H108.743V25.3076H114.682V15.3579H128.935V25.3076Z" fill="black"/>
<path d="M13.1318 82.2672C13.1318 83.2883 12.7469 84.1393 11.9772 84.82C11.2203 85.489 10.0594 85.8235 8.4943 85.8235H5.9158V90.9467H4.16473V78.6757H8.4943C10.008 78.6757 11.1562 79.0102 11.9387 79.6792C12.7341 80.3482 13.1318 81.2109 13.1318 82.2672ZM8.4943 84.5031C9.46926 84.5031 10.1876 84.3095 10.6495 83.9221C11.1113 83.5348 11.3422 82.9832 11.3422 82.2672C11.3422 80.7532 10.3929 79.9961 8.4943 79.9961H5.9158V84.5031H8.4943Z" fill="black"/>
<path d="M17.0592 82.8658C17.3671 82.3142 17.8032 81.8858 18.3677 81.5806C18.945 81.2755 19.6441 81.1229 20.4651 81.1229V82.7778H20.0033C18.0406 82.7778 17.0592 83.7519 17.0592 85.7003V90.9467H15.3081V81.2989H17.0592V82.8658Z" fill="black"/>
<path d="M27.0855 91.1051C26.0977 91.1051 25.1997 90.8997 24.3915 90.4889C23.5961 90.0782 22.9676 89.4972 22.5057 88.746C22.0567 87.9831 21.8322 87.1028 21.8322 86.1052C21.8322 85.1193 22.0632 84.2508 22.525 83.4996C22.9996 82.7367 23.641 82.1557 24.4492 81.7567C25.2574 81.3459 26.1618 81.1405 27.1624 81.1405C28.163 81.1405 29.0674 81.3459 29.8756 81.7567C30.6838 82.1557 31.3188 82.7308 31.7806 83.482C32.2553 84.2332 32.4926 85.1076 32.4926 86.1052C32.4926 87.1028 32.2489 87.9831 31.7614 88.746C31.2868 89.4972 30.6389 90.0782 29.8179 90.4889C28.9969 90.8997 28.0861 91.1051 27.0855 91.1051ZM27.0855 89.6967C27.7141 89.6967 28.3042 89.5617 28.8558 89.2918C29.4074 89.0218 29.85 88.6169 30.1835 88.077C30.5299 87.5371 30.7031 86.8798 30.7031 86.1052C30.7031 85.3306 30.5363 84.6733 30.2028 84.1334C29.8692 83.5935 29.4331 83.1944 28.8943 82.9362C28.3555 82.6663 27.7718 82.5313 27.1432 82.5313C26.5018 82.5313 25.9117 82.6663 25.3729 82.9362C24.8469 83.1944 24.4236 83.5935 24.1029 84.1334C23.7822 84.6733 23.6218 85.3306 23.6218 86.1052C23.6218 86.8916 23.7757 87.5547 24.0836 88.0946C24.4043 88.6345 24.8277 89.0394 25.3536 89.3094C25.8796 89.5676 26.4569 89.6967 27.0855 89.6967Z" fill="black"/>
<path d="M36.546 83.0771C36.8924 82.5254 37.4055 82.0677 38.0854 81.7039C38.7782 81.3283 39.5799 81.1405 40.4908 81.1405C41.4272 81.1405 42.2739 81.3459 43.0308 81.7567C43.8005 82.1675 44.4034 82.7484 44.8396 83.4996C45.2757 84.239 45.4938 85.1017 45.4938 86.0876C45.4938 87.0618 45.2757 87.9303 44.8396 88.6932C44.4034 89.4561 43.8005 90.0488 43.0308 90.4713C42.2739 90.8939 41.4272 91.1051 40.4908 91.1051C39.5928 91.1051 38.7974 90.9232 38.1047 90.5594C37.4248 90.1838 36.9052 89.7202 36.546 89.1685V95.5241H34.795V81.2989H36.546V83.0771ZM43.7043 86.0876C43.7043 85.3599 43.5439 84.7261 43.2232 84.1862C42.9025 83.6463 42.4663 83.2355 41.9147 82.9538C41.3759 82.6721 40.7794 82.5313 40.1251 82.5313C39.4837 82.5313 38.8872 82.678 38.3356 82.9714C37.7968 83.2531 37.3606 83.6698 37.0271 84.2214C36.7064 84.7613 36.546 85.3892 36.546 86.1052C36.546 86.8329 36.7064 87.4726 37.0271 88.0242C37.3606 88.5641 37.7968 88.9808 38.3356 89.2742C38.8872 89.5559 39.4837 89.6967 40.1251 89.6967C40.7794 89.6967 41.3759 89.5559 41.9147 89.2742C42.4663 88.9808 42.9025 88.5641 43.2232 88.0242C43.5439 87.4726 43.7043 86.827 43.7043 86.0876Z" fill="black"/>
<path d="M57.42 85.7531C57.42 86.0583 57.4008 86.381 57.3623 86.7214H48.934C48.9982 87.6721 49.351 88.4174 49.9924 88.9573C50.6466 89.4854 51.4356 89.7495 52.3592 89.7495C53.1161 89.7495 53.7447 89.5911 54.245 89.2742C54.7581 88.9455 55.1173 88.5113 55.3226 87.9714H57.2083C56.9261 88.8986 56.3617 89.6556 55.515 90.2425C54.6683 90.8176 53.6164 91.1051 52.3592 91.1051C51.3586 91.1051 50.4606 90.8997 49.6652 90.4889C48.8827 90.0782 48.267 89.4972 47.818 88.746C47.369 87.9831 47.1445 87.1028 47.1445 86.1052C47.1445 85.1076 47.3626 84.2332 47.7987 83.482C48.2349 82.7308 48.8442 82.1557 49.6268 81.7567C50.4221 81.3459 51.3329 81.1405 52.3592 81.1405C53.3598 81.1405 54.245 81.34 55.0147 81.7391C55.7844 82.1381 56.3745 82.6898 56.785 83.394C57.2083 84.0864 57.42 84.8728 57.42 85.7531ZM55.6112 85.4186C55.6112 84.8083 55.4637 84.286 55.1686 83.8517C54.8736 83.4057 54.4695 83.0712 53.9563 82.8482C53.456 82.6135 52.898 82.4961 52.2822 82.4961C51.3971 82.4961 50.6402 82.7543 50.0116 83.2707C49.3959 83.7872 49.0431 84.5031 48.9533 85.4186H55.6112Z" fill="black"/>
<path d="M61.4824 82.8658C61.7903 82.3142 62.2265 81.8858 62.7909 81.5806C63.3682 81.2755 64.0673 81.1229 64.8884 81.1229V82.7778H64.4265C62.4638 82.7778 61.4824 83.7519 61.4824 85.7003V90.9467H59.7314V81.2989H61.4824V82.8658Z" fill="black"/>
<path d="M69.0457 82.6193V88.3059C69.0457 88.7754 69.1547 89.1099 69.3728 89.3094C69.5909 89.4972 69.9693 89.5911 70.5081 89.5911H71.7973V90.9467H70.2195C69.2445 90.9467 68.5133 90.7413 68.0258 90.3305C67.5383 89.9197 67.2946 89.2448 67.2946 88.3059V82.6193H65.9284V81.2989H67.2946V78.8694H69.0457V81.2989H71.7973V82.6193H69.0457Z" fill="black"/>
<path d="M83.0015 81.2989L76.6514 95.4889H74.8426L76.9208 90.8411L72.6682 81.2989H74.6117L77.9214 89.1157L81.1927 81.2989H83.0015Z" fill="black"/>
<path d="M103.496 78.7637V90.9467H101.745V81.8623L97.3194 90.9467H96.0879L91.6429 81.8447V90.9467H89.8918V78.7637H91.7776L96.7037 88.834L101.63 78.7637H103.496Z" fill="black"/>
<path d="M105.812 86.0876C105.812 85.1017 106.03 84.239 106.466 83.4996C106.902 82.7484 107.499 82.1675 108.256 81.7567C109.025 81.3459 109.878 81.1405 110.815 81.1405C111.738 81.1405 112.54 81.3224 113.22 81.6862C113.9 82.0501 114.407 82.5078 114.74 83.0595V81.2989H116.511V90.9467H114.74V89.1509C114.394 89.7143 113.874 90.1838 113.182 90.5594C112.502 90.9232 111.706 91.1051 110.796 91.1051C109.859 91.1051 109.012 90.8939 108.256 90.4713C107.499 90.0488 106.902 89.4561 106.466 88.6932C106.03 87.9303 105.812 87.0618 105.812 86.0876ZM114.74 86.1052C114.74 85.3775 114.58 84.7437 114.259 84.2038C113.938 83.6639 113.502 83.2531 112.951 82.9714C112.412 82.678 111.815 82.5313 111.161 82.5313C110.507 82.5313 109.91 82.6721 109.372 82.9538C108.833 83.2355 108.403 83.6463 108.082 84.1862C107.762 84.7261 107.601 85.3599 107.601 86.0876C107.601 86.827 107.762 87.4726 108.082 88.0242C108.403 88.5641 108.833 88.9808 109.372 89.2742C109.91 89.5559 110.507 89.6967 111.161 89.6967C111.815 89.6967 112.412 89.5559 112.951 89.2742C113.502 88.9808 113.938 88.5641 114.259 88.0242C114.58 87.4726 114.74 86.8329 114.74 86.1052Z" fill="black"/>
<path d="M124.607 81.1229C125.89 81.1229 126.929 81.4808 127.725 82.1968C128.52 82.901 128.918 83.9221 128.918 85.2601V90.9467H127.186V85.489C127.186 84.5266 126.923 83.793 126.397 83.2883C125.871 82.7719 125.153 82.5137 124.242 82.5137C123.318 82.5137 122.581 82.7778 122.029 83.3059C121.49 83.8341 121.221 84.6029 121.221 85.6123V90.9467H119.47V81.2989H121.221V82.6721C121.567 82.1792 122.035 81.7977 122.625 81.5278C123.228 81.2578 123.889 81.1229 124.607 81.1229Z" fill="black"/>
<path d="M131.124 86.0876C131.124 85.1017 131.342 84.239 131.778 83.4996C132.214 82.7484 132.811 82.1675 133.568 81.7567C134.337 81.3459 135.191 81.1405 136.127 81.1405C137.051 81.1405 137.852 81.3224 138.532 81.6862C139.212 82.0501 139.719 82.5078 140.052 83.0595V81.2989H141.823V90.9467H140.052V89.1509C139.706 89.7143 139.187 90.1838 138.494 90.5594C137.814 90.9232 137.019 91.1051 136.108 91.1051C135.171 91.1051 134.325 90.8939 133.568 90.4713C132.811 90.0488 132.214 89.4561 131.778 88.6932C131.342 87.9303 131.124 87.0618 131.124 86.0876ZM140.052 86.1052C140.052 85.3775 139.892 84.7437 139.571 84.2038C139.251 83.6639 138.815 83.2531 138.263 82.9714C137.724 82.678 137.128 82.5313 136.473 82.5313C135.819 82.5313 135.223 82.6721 134.684 82.9538C134.145 83.2355 133.715 83.6463 133.395 84.1862C133.074 84.7261 132.913 85.3599 132.913 86.0876C132.913 86.827 133.074 87.4726 133.395 88.0242C133.715 88.5641 134.145 88.9808 134.684 89.2742C135.223 89.5559 135.819 89.6967 136.473 89.6967C137.128 89.6967 137.724 89.5559 138.263 89.2742C138.815 88.9808 139.251 88.5641 139.571 88.0242C139.892 87.4726 140.052 86.8329 140.052 86.1052Z" fill="black"/>
<path d="M149.131 81.1405C150.042 81.1405 150.837 81.3224 151.517 81.6862C152.21 82.0501 152.723 82.5078 153.056 83.0595V81.2989H154.827V91.158C154.827 92.0382 154.621 92.8187 154.211 93.4995C153.8 94.192 153.21 94.7319 152.44 95.1192C151.684 95.5065 150.798 95.7002 149.785 95.7002C148.4 95.7002 147.245 95.4009 146.321 94.8023C145.398 94.2037 144.853 93.388 144.686 92.3551H146.418C146.61 92.942 147.008 93.4114 147.611 93.7636C148.214 94.1274 148.938 94.3093 149.785 94.3093C150.747 94.3093 151.53 94.0335 152.133 93.4819C152.748 92.9302 153.056 92.1556 153.056 91.158V89.1333C152.71 89.6967 152.197 90.1662 151.517 90.5418C150.837 90.9173 150.042 91.1051 149.131 91.1051C148.194 91.1051 147.341 90.8939 146.571 90.4713C145.815 90.0488 145.218 89.4561 144.782 88.6932C144.346 87.9303 144.128 87.0618 144.128 86.0876C144.128 85.1017 144.346 84.239 144.782 83.4996C145.218 82.7484 145.815 82.1675 146.571 81.7567C147.341 81.3459 148.194 81.1405 149.131 81.1405ZM153.056 86.1052C153.056 85.3775 152.896 84.7437 152.575 84.2038C152.254 83.6639 151.818 83.2531 151.267 82.9714C150.728 82.678 150.131 82.5313 149.477 82.5313C148.823 82.5313 148.226 82.6721 147.688 82.9538C147.149 83.2355 146.719 83.6463 146.398 84.1862C146.078 84.7261 145.917 85.3599 145.917 86.0876C145.917 86.827 146.078 87.4726 146.398 88.0242C146.719 88.5641 147.149 88.9808 147.688 89.2742C148.226 89.5559 148.823 89.6967 149.477 89.6967C150.131 89.6967 150.728 89.5559 151.267 89.2742C151.818 88.9808 152.254 88.5641 152.575 88.0242C152.896 87.4726 153.056 86.8329 153.056 86.1052Z" fill="black"/>
<path d="M167.407 85.7531C167.407 86.0583 167.388 86.381 167.349 86.7214H158.921C158.985 87.6721 159.338 88.4174 159.979 88.9573C160.634 89.4854 161.423 89.7495 162.346 89.7495C163.103 89.7495 163.732 89.5911 164.232 89.2742C164.745 88.9455 165.104 88.5113 165.31 87.9714H167.195C166.913 88.8986 166.349 89.6556 165.502 90.2425C164.655 90.8176 163.603 91.1051 162.346 91.1051C161.346 91.1051 160.448 90.8997 159.652 90.4889C158.87 90.0782 158.254 89.4972 157.805 88.746C157.356 87.9831 157.131 87.1028 157.131 86.1052C157.131 85.1076 157.35 84.2332 157.786 83.482C158.222 82.7308 158.831 82.1557 159.614 81.7567C160.409 81.3459 161.32 81.1405 162.346 81.1405C163.347 81.1405 164.232 81.34 165.002 81.7391C165.771 82.1381 166.361 82.6898 166.772 83.394C167.195 84.0864 167.407 84.8728 167.407 85.7531ZM165.598 85.4186C165.598 84.8083 165.451 84.286 165.156 83.8517C164.861 83.4057 164.456 83.0712 163.943 82.8482C163.443 82.6135 162.885 82.4961 162.269 82.4961C161.384 82.4961 160.627 82.7543 159.999 83.2707C159.383 83.7872 159.03 84.5031 158.94 85.4186H165.598Z" fill="black"/>
<path d="M182.399 81.1229C183.22 81.1229 183.951 81.2813 184.593 81.5982C185.234 81.9034 185.741 82.367 186.113 82.989C186.485 83.6111 186.671 84.3681 186.671 85.2601V90.9467H184.939V85.489C184.939 84.5266 184.676 83.793 184.15 83.2883C183.637 82.7719 182.938 82.5137 182.053 82.5137C181.142 82.5137 180.417 82.7836 179.878 83.3235C179.34 83.8517 179.07 84.6205 179.07 85.6299V90.9467H177.338V85.489C177.338 84.5266 177.075 83.793 176.549 83.2883C176.036 82.7719 175.337 82.5137 174.452 82.5137C173.541 82.5137 172.816 82.7836 172.278 83.3235C171.739 83.8517 171.469 84.6205 171.469 85.6299V90.9467H169.718V81.2989H171.469V82.6898C171.816 82.1851 172.278 81.7977 172.855 81.5278C173.445 81.2578 174.093 81.1229 174.798 81.1229C175.684 81.1229 176.466 81.3048 177.146 81.6686C177.826 82.0325 178.333 82.5665 178.666 83.2707C178.961 82.59 179.449 82.0618 180.129 81.6862C180.808 81.3107 181.565 81.1229 182.399 81.1229Z" fill="black"/>
<path d="M199.165 85.7531C199.165 86.0583 199.145 86.381 199.107 86.7214H190.679C190.743 87.6721 191.096 88.4174 191.737 88.9573C192.391 89.4854 193.18 89.7495 194.104 89.7495C194.861 89.7495 195.489 89.5911 195.99 89.2742C196.503 88.9455 196.862 88.5113 197.067 87.9714H198.953C198.671 88.8986 198.106 89.6556 197.26 90.2425C196.413 90.8176 195.361 91.1051 194.104 91.1051C193.103 91.1051 192.205 90.8997 191.41 90.4889C190.627 90.0782 190.012 89.4972 189.563 88.746C189.114 87.9831 188.889 87.1028 188.889 86.1052C188.889 85.1076 189.107 84.2332 189.543 83.482C189.98 82.7308 190.589 82.1557 191.371 81.7567C192.167 81.3459 193.078 81.1405 194.104 81.1405C195.105 81.1405 195.99 81.34 196.759 81.7391C197.529 82.1381 198.119 82.6898 198.53 83.394C198.953 84.0864 199.165 84.8728 199.165 85.7531ZM197.356 85.4186C197.356 84.8083 197.208 84.286 196.913 83.8517C196.618 83.4057 196.214 83.0712 195.701 82.8482C195.201 82.6135 194.643 82.4961 194.027 82.4961C193.142 82.4961 192.385 82.7543 191.756 83.2707C191.141 83.7872 190.788 84.5031 190.698 85.4186H197.356Z" fill="black"/>
<path d="M206.614 81.1229C207.897 81.1229 208.936 81.4808 209.731 82.1968C210.526 82.901 210.924 83.9221 210.924 85.2601V90.9467H209.192V85.489C209.192 84.5266 208.929 83.793 208.403 83.2883C207.877 82.7719 207.159 82.5137 206.248 82.5137C205.325 82.5137 204.587 82.7778 204.035 83.3059C203.497 83.8341 203.227 84.6029 203.227 85.6123V90.9467H201.476V81.2989H203.227V82.6721C203.573 82.1792 204.042 81.7977 204.632 81.5278C205.235 81.2578 205.895 81.1229 206.614 81.1229Z" fill="black"/>
<path d="M215.92 82.6193V88.3059C215.92 88.7754 216.03 89.1099 216.248 89.3094C216.466 89.4972 216.844 89.5911 217.383 89.5911H218.672V90.9467H217.094C216.119 90.9467 215.388 90.7413 214.901 90.3305C214.413 89.9197 214.169 89.2448 214.169 88.3059V82.6193H212.803V81.2989H214.169V78.8694H215.92V81.2989H218.672V82.6193H215.92Z" fill="black"/>
</svg>
