<svg width="185" height="60" viewBox="0 0 185 60" fill="none" xmlns="http://www.w3.org/2000/svg">
<path d="M144.776 11.8244H120.423L136.488 34.1875H162.175L184.336 0.624191L157.171 27.5675L144.776 11.8244Z" fill="#008069"/>
<path d="M139.073 37.3398L120.423 59.4063H127.377L143.183 42.3836L154.563 59.4063H177.955L163.098 37.3398H139.073Z" fill="black"/>
<path d="M141.286 51.8407H139.073V54.0473H141.286V51.8407Z" fill="#008069"/>
<path d="M145.08 55.6235H142.867V57.8301H145.08V55.6235Z" fill="#008069"/>
<path d="M141.286 55.6235H139.073V57.8301H141.286V55.6235Z" fill="#008069"/>
<path d="M145.08 51.8407H142.867V54.0473H145.08V51.8407Z" fill="#008069"/>
<path d="M3.58152 58.7758V20.9167L0 12.0201H18.7541C22.6612 12.0201 25.8954 12.5613 28.4568 13.6436C31.0181 14.6826 32.9282 16.4576 34.1872 18.9685C35.4461 21.4795 36.0756 24.8996 36.0756 29.2288C36.0756 35.2032 34.643 39.5108 31.7778 42.1516C28.9126 44.7924 24.5714 46.1128 18.7541 46.1128H16.2796V58.7758H3.58152ZM16.2796 36.8266C18.3634 36.8266 19.9045 36.2638 20.903 35.1382C21.9449 34.0126 22.4659 31.9995 22.4659 29.0989C22.4659 26.891 22.2705 25.2243 21.8798 24.0987C21.5325 22.9731 20.903 22.2155 19.9914 21.8258C19.1231 21.3929 17.8859 21.1764 16.2796 21.1764V36.8266Z" fill="black"/>
<path d="M51.4003 58.7758H39.679V11.3058L51.4003 9.74727V58.7758Z" fill="black"/>
<path d="M71.3764 59.4252C67.5127 59.4252 64.3871 58.7758 61.9994 57.4771C59.6551 56.1783 57.9403 54.1219 56.855 51.3079C55.8131 48.4506 55.2922 44.7275 55.2922 40.1385C55.2922 35.5495 55.8131 31.848 56.855 29.034C57.9403 26.22 59.6551 24.1636 61.9994 22.8648C64.3871 21.5661 67.5127 20.9167 71.3764 20.9167C75.2835 20.9167 78.4092 21.5661 80.7535 22.8648C83.0978 24.1636 84.7908 26.22 85.8327 29.034C86.9181 31.848 87.4607 35.5495 87.4607 40.1385C87.4607 44.7275 86.9181 48.4506 85.8327 51.3079C84.7908 54.1219 83.0978 56.1783 80.7535 57.4771C78.4092 58.7758 75.2835 59.4252 71.3764 59.4252ZM71.3113 50.2689C72.7873 50.2689 73.8292 49.4896 74.437 47.9311C75.0448 46.3293 75.3487 43.7534 75.3487 40.2034C75.3487 36.6102 75.0448 34.0343 74.437 32.4757C73.8292 30.8739 72.7873 30.073 71.3113 30.073C69.8787 30.073 68.8585 30.8739 68.2508 32.4757C67.6864 34.0343 67.4042 36.6102 67.4042 40.2034C67.4042 43.7534 67.6864 46.3293 68.2508 47.9311C68.8585 49.4896 69.8787 50.2689 71.3113 50.2689Z" fill="black"/>
<path d="M106.031 21.4362H113.129V30.2029H106.031V46.3726C106.031 47.5848 106.335 48.4723 106.943 49.0351C107.594 49.5979 108.614 49.8793 110.003 49.8793C110.698 49.8793 111.306 49.8576 111.827 49.8143C112.348 49.7277 112.782 49.6412 113.129 49.5546V58.1914C112.087 58.5377 110.98 58.8191 109.808 59.0356C108.679 59.2954 107.529 59.4252 106.357 59.4252C102.363 59.4252 99.3457 58.581 97.3053 56.8926C95.3083 55.1609 94.3098 52.0872 94.3098 47.6714V30.2029H89.426V21.4362H94.3098V13.254H106.031V21.4362Z" fill="black"/>
</svg>
