<svg width="14" height="15" viewBox="0 0 14 15" fill="none" xmlns="http://www.w3.org/2000/svg">
<path d="M1 2.83333C1 2.47971 1.14048 2.14057 1.39052 1.89052C1.64057 1.64048 1.97971 1.5 2.33333 1.5H4.52C4.65986 1.50011 4.79615 1.5442 4.90957 1.62603C5.02299 1.70787 5.1078 1.8233 5.152 1.956L6.15067 4.95133C6.20127 5.10356 6.19528 5.26893 6.13381 5.4171C6.07234 5.56527 5.9595 5.6863 5.816 5.758L4.31133 6.51133C5.04888 8.14369 6.35631 9.45112 7.98867 10.1887L8.742 8.684C8.8137 8.5405 8.93473 8.42766 9.0829 8.36619C9.23107 8.30472 9.39644 8.29873 9.54867 8.34933L12.544 9.348C12.6768 9.39223 12.7923 9.47714 12.8742 9.5907C12.956 9.70425 13 9.84069 13 9.98067V12.1667C13 12.5203 12.8595 12.8594 12.6095 13.1095C12.3594 13.3595 12.0203 13.5 11.6667 13.5H11C5.47733 13.5 1 9.02267 1 3.5V2.83333Z" stroke="#008069" stroke-width="1.5" stroke-linecap="round" stroke-linejoin="round"/>
</svg>
