<svg width="24" height="25" viewBox="0 0 24 25" fill="none" xmlns="http://www.w3.org/2000/svg">
<path d="M12.0051 3.5H5.00513C4.47469 3.5 3.96599 3.71071 3.59091 4.08579C3.21584 4.46086 3.00513 4.96957 3.00513 5.5V19.5C3.00513 20.0304 3.21584 20.5391 3.59091 20.9142C3.96599 21.2893 4.47469 21.5 5.00513 21.5H19.0051C19.5356 21.5 20.0443 21.2893 20.4193 20.9142C20.7944 20.5391 21.0051 20.0304 21.0051 19.5V12.5" stroke="black" stroke-width="2" stroke-linecap="round" stroke-linejoin="round"/>
<path d="M18.3802 3.125C18.778 2.72717 19.3176 2.50368 19.8802 2.50368C20.4428 2.50368 20.9824 2.72717 21.3802 3.125C21.778 3.52282 22.0015 4.06239 22.0015 4.625C22.0015 5.18761 21.778 5.72717 21.3802 6.125L12.3672 15.139C12.1298 15.3762 11.8364 15.5499 11.5142 15.644L8.64122 16.484C8.55517 16.5091 8.46396 16.5106 8.37713 16.4884C8.2903 16.4661 8.21105 16.4209 8.14767 16.3576C8.08429 16.2942 8.03911 16.2149 8.01686 16.1281C7.99462 16.0413 7.99612 15.95 8.02122 15.864L8.86122 12.991C8.95575 12.669 9.12976 12.3761 9.36722 12.139L18.3802 3.125Z" stroke="black" stroke-width="2" stroke-linecap="round" stroke-linejoin="round"/>
</svg>
