<svg width="20" height="20" viewBox="0 0 20 20" fill="none" xmlns="http://www.w3.org/2000/svg">
<path d="M0.75 9.75L2.75 7.75M2.75 7.75L9.75 0.75L16.75 7.75M2.75 7.75V17.75C2.75 18.0152 2.85536 18.2696 3.04289 18.4571C3.23043 18.6446 3.48478 18.75 3.75 18.75H6.75M16.75 7.75L18.75 9.75M16.75 7.75V17.75C16.75 18.0152 16.6446 18.2696 16.4571 18.4571C16.2696 18.6446 16.0152 18.75 15.75 18.75H12.75M6.75 18.75C7.01522 18.75 7.26957 18.6446 7.45711 18.4571C7.64464 18.2696 7.75 18.0152 7.75 17.75V13.75C7.75 13.4848 7.85536 13.2304 8.04289 13.0429C8.23043 12.8554 8.48478 12.75 8.75 12.75H10.75C11.0152 12.75 11.2696 12.8554 11.4571 13.0429C11.6446 13.2304 11.75 13.4848 11.75 13.75V17.75C11.75 18.0152 11.8554 18.2696 12.0429 18.4571C12.2304 18.6446 12.4848 18.75 12.75 18.75M6.75 18.75H12.75" stroke="white" stroke-opacity="0.6" stroke-width="1.5" stroke-linecap="round" stroke-linejoin="round"/>
</svg>
