<svg width="110" height="35" viewBox="0 0 110 35" fill="none" xmlns="http://www.w3.org/2000/svg">
<path d="M85.6821 6.62857H71.2696L80.7774 19.8636H95.9795L109.095 0L93.0181 15.9458L85.6821 6.62857Z" fill="#FAFFFE"/>
<path d="M82.3074 21.7293L71.2696 34.7888H75.3854L84.7395 24.7143L91.4745 34.7888H105.319L96.5257 21.7293H82.3074Z" fill="black"/>
<path d="M83.617 30.3113H82.3074V31.6172H83.617V30.3113Z" fill="#FAFFFE"/>
<path d="M85.862 32.55H84.5524V33.856H85.862V32.55Z" fill="#FAFFFE"/>
<path d="M83.617 32.55H82.3074V33.856H83.617V32.55Z" fill="#FAFFFE"/>
<path d="M85.862 30.3113H84.5524V31.6172H85.862V30.3113Z" fill="#FAFFFE"/>
<path d="M2.11964 34.4157V12.0096L0 6.74441H11.0992C13.4115 6.74441 15.3256 7.06468 16.8415 7.70522C18.3573 8.32014 19.4878 9.37062 20.2329 10.8567C20.978 12.3427 21.3505 14.3668 21.3505 16.929C21.3505 20.4647 20.5027 23.0141 18.807 24.577C17.1113 26.1399 14.542 26.9214 11.0992 26.9214H9.63472V34.4157H2.11964ZM9.63472 21.4256C10.868 21.4256 11.78 21.0925 12.371 20.4263C12.9876 19.7602 13.2959 18.5688 13.2959 16.8521C13.2959 15.5454 13.1803 14.559 12.9491 13.8928C12.7435 13.2267 12.371 12.7783 11.8314 12.5477C11.3176 12.2915 10.5853 12.1634 9.63472 12.1634V21.4256Z" fill="black"/>
<path d="M30.4201 34.4157H23.4831V6.32166L30.4201 5.39928V34.4157Z" fill="black"/>
<path d="M42.2425 34.8C39.9559 34.8 38.106 34.4157 36.6929 33.647C35.3055 32.8784 34.2907 31.6614 33.6483 29.996C33.0317 28.3049 32.7234 26.1015 32.7234 23.3856C32.7234 20.6697 33.0317 18.4791 33.6483 16.8137C34.2907 15.1483 35.3055 13.9313 36.6929 13.1626C38.106 12.394 39.9559 12.0096 42.2425 12.0096C44.5548 12.0096 46.4047 12.394 47.7921 13.1626C49.1795 13.9313 50.1815 15.1483 50.7981 16.8137C51.4405 18.4791 51.7616 20.6697 51.7616 23.3856C51.7616 26.1015 51.4405 28.3049 50.7981 29.996C50.1815 31.6614 49.1795 32.8784 47.7921 33.647C46.4047 34.4157 44.5548 34.8 42.2425 34.8ZM42.204 29.381C43.0775 29.381 43.6941 28.9199 44.0538 27.9975C44.4135 27.0495 44.5934 25.525 44.5934 23.424C44.5934 21.2974 44.4135 19.773 44.0538 18.8506C43.6941 17.9026 43.0775 17.4286 42.204 17.4286C41.3561 17.4286 40.7523 17.9026 40.3927 18.8506C40.0586 19.773 39.8916 21.2974 39.8916 23.424C39.8916 25.525 40.0586 27.0495 40.3927 27.9975C40.7523 28.9199 41.3561 29.381 42.204 29.381Z" fill="black"/>
<path d="M62.7521 12.3171H66.9529V17.5055H62.7521V27.0751C62.7521 27.7925 62.932 28.3178 63.2917 28.6508C63.6771 28.9839 64.2808 29.1504 65.103 29.1504C65.5141 29.1504 65.8738 29.1376 66.1821 29.112C66.4904 29.0608 66.7473 29.0095 66.9529 28.9583V34.0698C66.3362 34.2748 65.6811 34.4413 64.9874 34.5694C64.3194 34.7231 63.6385 34.8 62.9448 34.8C60.5811 34.8 58.7955 34.3004 57.5879 33.3011C56.406 32.2763 55.8151 30.4571 55.8151 27.8438V17.5055H52.9247V12.3171H55.8151V7.47462H62.7521V12.3171Z" fill="black"/>
</svg>
