<svg width="217" height="77" viewBox="0 0 217 77" fill="none" xmlns="http://www.w3.org/2000/svg">
<path d="M157.733 21.8454H131.026L149.684 49.2389H177.854L217 0L172.367 41.9571L157.733 21.8454Z" fill="#008069"/>
<path d="M152.519 52.7065L132.066 76.9792H139.692L157.026 58.2545L169.506 76.9792H195.16L178.866 52.7065H152.519Z" fill="black"/>
<path d="M154.946 68.6571H152.519V71.0844H154.946V68.6571Z" fill="#008069"/>
<path d="M159.106 72.8182H156.679V75.2454H159.106V72.8182Z" fill="#008069"/>
<path d="M154.946 72.8182H152.519V75.2454H154.946V72.8182Z" fill="#008069"/>
<path d="M159.106 68.6571H156.679V71.0844H159.106V68.6571Z" fill="#008069"/>
<path d="M3.92778 76.2857V34.6413L0 24.8553H20.5673C24.8521 24.8553 28.399 25.4505 31.208 26.641C34.017 27.7839 36.1118 29.7364 37.4924 32.4984C38.8731 35.2604 39.5635 39.0224 39.5635 43.7845C39.5635 50.3562 37.9923 55.0944 34.8501 57.9993C31.7079 60.9042 26.947 62.3566 20.5673 62.3566H17.8535V76.2857H3.92778ZM17.8535 52.142C20.1388 52.142 21.8289 51.5229 22.924 50.2847C24.0666 49.0466 24.6379 46.8322 24.6379 43.6417C24.6379 41.213 24.4237 39.3796 23.9952 38.1415C23.6143 36.9033 22.924 36.07 21.9242 35.6414C20.972 35.1652 19.6151 34.9271 17.8535 34.9271V52.142Z" fill="black"/>
<path d="M56.3698 76.2857H43.5152V24.0695L56.3698 22.3552V76.2857Z" fill="black"/>
<path d="M78.2772 77C74.04 77 70.6121 76.2857 67.9936 74.8571C65.4226 73.4284 63.5421 71.1665 62.3518 68.0711C61.2092 64.9281 60.6379 60.8328 60.6379 55.785C60.6379 50.7372 61.2092 46.6656 62.3518 43.5702C63.5421 40.4749 65.4226 38.2129 67.9936 36.7843C70.6121 35.3556 74.04 34.6413 78.2772 34.6413C82.562 34.6413 85.9899 35.3556 88.5608 36.7843C91.1318 38.2129 92.9885 40.4749 94.1311 43.5702C95.3214 46.6656 95.9165 50.7372 95.9165 55.785C95.9165 60.8328 95.3214 64.9281 94.1311 68.0711C92.9885 71.1665 91.1318 73.4284 88.5608 74.8571C85.9899 76.2857 82.562 77 78.2772 77ZM78.2058 66.9282C79.8245 66.9282 80.9671 66.071 81.6337 64.3567C82.3002 62.5947 82.6335 59.7613 82.6335 55.8564C82.6335 51.9039 82.3002 49.0704 81.6337 47.3561C80.9671 45.5941 79.8245 44.7131 78.2058 44.7131C76.6347 44.7131 75.5158 45.5941 74.8493 47.3561C74.2304 49.0704 73.9209 51.9039 73.9209 55.8564C73.9209 59.7613 74.2304 62.5947 74.8493 64.3567C75.5158 66.071 76.6347 66.9282 78.2058 66.9282Z" fill="black"/>
<path d="M116.282 35.2128H124.067V44.856H116.282V62.6423C116.282 63.9757 116.616 64.9519 117.282 65.571C117.996 66.1901 119.115 66.4996 120.639 66.4996C121.4 66.4996 122.067 66.4758 122.638 66.4282C123.21 66.3329 123.686 66.2377 124.067 66.1425V75.6428C122.924 76.0238 121.71 76.3333 120.424 76.5714C119.187 76.8571 117.925 77 116.639 77C112.259 77 108.951 76.0714 106.713 74.2142C104.523 72.3094 103.428 68.9283 103.428 64.071V44.856H98.0718V35.2128H103.428V26.2125H116.282V35.2128Z" fill="black"/>
</svg>
