<svg width="17" height="15" viewBox="0 0 17 15" fill="none" xmlns="http://www.w3.org/2000/svg">
<path d="M4.87498 4.16665H12.7916M4.87498 7.49998H8.04165M8.83331 14.1666L5.66665 10.8333H3.29165C2.87172 10.8333 2.46899 10.6577 2.17206 10.3452C1.87513 10.0326 1.70831 9.60867 1.70831 9.16664V2.49998C1.70831 2.05795 1.87513 1.63403 2.17206 1.32147C2.46899 1.00891 2.87172 0.833313 3.29165 0.833313H14.375C14.7949 0.833313 15.1976 1.00891 15.4946 1.32147C15.7915 1.63403 15.9583 2.05795 15.9583 2.49998V9.16664C15.9583 9.60867 15.7915 10.0326 15.4946 10.3452C15.1976 10.6577 14.7949 10.8333 14.375 10.8333H12L8.83331 14.1666Z" stroke="white" stroke-opacity="0.6" stroke-width="1.5" stroke-linecap="round" stroke-linejoin="round"/>
</svg>
