<svg width="18" height="17" viewBox="0 0 18 17" fill="none" xmlns="http://www.w3.org/2000/svg">
<path d="M16.1667 16L11.1667 11M12.8334 6.83333C12.8334 7.59938 12.6825 8.35792 12.3893 9.06565C12.0962 9.77339 11.6665 10.4164 11.1248 10.9581C10.5831 11.4998 9.94007 11.9295 9.23234 12.2226C8.52461 12.5158 7.76606 12.6667 7.00002 12.6667C6.23398 12.6667 5.47543 12.5158 4.7677 12.2226C4.05997 11.9295 3.41691 11.4998 2.87523 10.9581C2.33356 10.4164 1.90388 9.77339 1.61072 9.06565C1.31757 8.35792 1.16669 7.59938 1.16669 6.83333C1.16669 5.28624 1.78127 3.80251 2.87523 2.70854C3.96919 1.61458 5.45292 1 7.00002 1C8.54712 1 10.0308 1.61458 11.1248 2.70854C12.2188 3.80251 12.8334 5.28624 12.8334 6.83333Z" stroke="white" stroke-opacity="0.6" stroke-width="2" stroke-linecap="round" stroke-linejoin="round"/>
</svg>
