<svg width="26" height="25" viewBox="0 0 26 25" fill="none" xmlns="http://www.w3.org/2000/svg">
<path d="M14.1126 1.1194V7.08955C14.1126 7.70989 13.6158 8.20895 12.9984 8.20895C12.3809 8.20895 11.8842 7.70989 11.8842 7.08955V1.1194C11.8842 0.499067 12.3809 0 12.9984 0C13.6158 0 14.1126 0.499067 14.1126 1.1194ZM7.05603 14.5522C7.05603 13.7267 7.71991 13.0597 8.54162 13.0597H17.4551C18.2768 13.0597 18.9407 13.7267 18.9407 14.5522V16.0448H22.6547C23.8849 16.0448 24.8831 17.0476 24.8831 18.2836V22.7612C24.8831 23.9972 23.8849 25 22.6547 25H3.34207C2.11182 25 1.11369 23.9972 1.11369 22.7612V18.2836C1.11369 17.0476 2.11182 16.0448 3.34207 16.0448H7.05603V14.5522ZM0.185201 6.46922C0.528743 5.95616 1.22047 5.81623 1.73114 6.15672L6.1879 9.14179C6.69857 9.48694 6.83784 10.1819 6.49894 10.695C6.16004 11.208 5.46367 11.3479 4.953 11.0075L0.496246 8.02239C-0.0144243 7.67724 -0.153698 6.98228 0.185201 6.46922ZM24.2656 6.15672C24.7763 5.81157 25.468 5.95149 25.8116 6.46922C26.1551 6.98694 26.0158 7.67724 25.5005 8.02239L21.0438 11.0075C20.5331 11.3526 19.8414 11.2127 19.4978 10.695C19.1543 10.1772 19.2935 9.48694 19.8089 9.14179L24.2656 6.15672Z" fill="#E73C3C"/>
</svg>
