<svg width="19" height="20" viewBox="0 0 19 20" fill="none" xmlns="http://www.w3.org/2000/svg">
<g clip-path="url(#clip0_66_712)">
<path fill-rule="evenodd" clip-rule="evenodd" d="M0 10C0 7.48044 1.00089 5.06408 2.78249 3.28249C4.56408 1.50089 6.98044 0.5 9.5 0.5C12.0196 0.5 14.4359 1.50089 16.2175 3.28249C17.9991 5.06408 19 7.48044 19 10C19 12.5196 17.9991 14.9359 16.2175 16.7175C14.4359 18.4991 12.0196 19.5 9.5 19.5C6.98044 19.5 4.56408 18.4991 2.78249 16.7175C1.00089 14.9359 0 12.5196 0 10ZM8.95787 14.066L14.4273 7.22853L13.4393 6.43813L8.77547 12.2661L5.472 9.5136L4.66133 10.4864L8.95787 14.066Z" fill="black"/>
</g>
<defs>
<clipPath id="clip0_66_712">
<rect width="19" height="19" fill="white" transform="translate(0 0.5)"/>
</clipPath>
</defs>
</svg>
