<svg width="22" height="23" viewBox="0 0 22 23" fill="none" xmlns="http://www.w3.org/2000/svg">
<path fill-rule="evenodd" clip-rule="evenodd" d="M17.4291 12.9318C17.9681 12.7943 18.9471 12.7696 19.6383 13.6102C20.1773 14.2665 20.1443 15.0172 20.114 15.3152C20.0425 16.0127 19.7107 16.7177 19.3238 17.2127C17.2311 19.8893 13.6442 21.0718 10.2993 20.6502C5.03392 19.9874 1.30217 15.1804 1.96584 9.91508C2.17026 8.2935 2.64417 6.83967 3.51867 5.60583C4.39959 4.36192 5.60134 3.46358 7.06067 2.82375C7.62758 2.58148 8.22603 2.42099 8.83809 2.34708C9.00309 2.33058 9.20476 2.31958 9.42292 2.33425C9.61451 2.34708 9.96101 2.38925 10.324 2.57442C10.5973 2.71201 10.8352 2.9108 11.0191 3.15532C11.2031 3.39984 11.3282 3.68351 11.3846 3.98425C11.5028 4.62592 11.2783 5.13558 11.1453 5.37942C10.9849 5.67275 10.7567 6.14758 10.5587 6.64075C10.346 7.16875 10.2323 7.56292 10.2103 7.74717C10.0485 9.03178 10.4035 10.3281 11.1974 11.3509C11.9912 12.3738 13.1589 13.0394 14.4435 13.2013C14.6571 13.2288 15.2007 13.2197 15.9019 13.1555C16.5784 13.0913 17.1706 12.9969 17.4291 12.9318ZM18.1258 15.6772C18.3678 15.1575 18.4017 14.5763 17.8801 14.7083C17.5583 14.7908 17.034 14.8752 16.4666 14.9393L16.4437 14.9421C15.6233 15.0337 14.7185 15.0842 14.2143 15.02C12.4473 14.7974 10.841 13.882 9.74885 12.4751C8.65672 11.0682 8.1682 9.28508 8.39076 7.518C8.44026 7.122 8.60526 6.60133 8.80601 6.08525L8.86834 5.92941C9.08926 5.38216 9.34317 4.85417 9.53476 4.50217C9.71167 4.1795 9.38442 4.12175 8.94626 4.18133C8.40832 4.26199 7.88775 4.43242 7.40626 4.6855C5.23926 5.7635 4.11909 7.48317 3.78451 10.1433C3.65684 11.1565 3.72998 12.1849 3.99976 13.1698C4.26953 14.1547 4.73066 15.0768 5.3568 15.8835C5.98295 16.6902 6.76185 17.3656 7.64905 17.8713C8.53624 18.377 9.51434 18.7029 10.5275 18.8306C13.0658 19.1496 15.6737 18.3557 17.3585 16.67C17.5442 16.4853 17.7184 16.2893 17.8801 16.0833C17.9736 15.9642 18.0579 15.8239 18.1258 15.6772Z" fill="white"/>
<path d="M13.6478 7.45291C13.6713 7.42815 13.7003 7.40924 13.7324 7.39772C13.7645 7.3862 13.7989 7.38238 13.8328 7.38657C13.8667 7.39076 13.8991 7.40284 13.9275 7.42185C13.9558 7.44086 13.9793 7.46625 13.9961 7.496C14.0059 7.51555 14.019 7.53266 14.0355 7.54733C14.0599 7.57108 14.0784 7.60016 14.0896 7.63228C14.1009 7.6644 14.1045 7.69869 14.1002 7.73245C14.096 7.76621 14.0839 7.79852 14.0651 7.82684C14.0462 7.85516 14.021 7.87872 13.9915 7.89566C13.9722 7.90565 13.9548 7.919 13.9402 7.93508C13.9167 7.95981 13.8878 7.97866 13.8556 7.99011C13.8235 8.00157 13.7892 8.00531 13.7553 8.00102C13.7215 7.99674 13.6892 7.98456 13.6609 7.96546C13.6327 7.94636 13.6093 7.92088 13.5928 7.89108C13.5828 7.87177 13.5694 7.85439 13.5534 7.83975C13.5286 7.81634 13.5097 7.78743 13.4982 7.75536C13.4866 7.72329 13.4828 7.68896 13.487 7.65514C13.4912 7.62132 13.5033 7.58896 13.5223 7.56068C13.5413 7.5324 13.5667 7.50898 13.5964 7.49233C13.6158 7.48234 13.6331 7.46899 13.6478 7.45291Z" fill="white"/>
<path fill-rule="evenodd" clip-rule="evenodd" d="M14.3766 7.24117C14.4452 7.31366 14.4969 7.40047 14.528 7.49534C14.5591 7.59021 14.5687 7.69079 14.5563 7.78984C14.5439 7.88889 14.5096 7.98395 14.456 8.06819C14.4025 8.15242 14.3309 8.22374 14.2464 8.277C14.1739 8.34542 14.0871 8.39693 13.9923 8.42783C13.8975 8.45873 13.797 8.46826 13.698 8.45572C13.5991 8.44319 13.5042 8.40891 13.4201 8.35535C13.3359 8.30179 13.2647 8.23026 13.2115 8.14591C13.1431 8.07342 13.0915 7.98668 13.0605 7.8919C13.0295 7.79713 13.0199 7.69667 13.0324 7.59774C13.0448 7.49881 13.079 7.40386 13.1325 7.31971C13.186 7.23555 13.2574 7.16428 13.3417 7.111C13.4142 7.04237 13.501 6.99066 13.5959 6.95959C13.6907 6.92852 13.7913 6.91886 13.8904 6.9313C13.9894 6.94375 14.0845 6.978 14.1687 7.03157C14.2529 7.08515 14.3233 7.15673 14.3766 7.24117ZM13.8972 7.826C13.9221 7.79282 13.9379 7.75372 13.943 7.71256C13.9482 7.6714 13.9425 7.62962 13.9265 7.59133C13.8933 7.56645 13.8542 7.55065 13.8131 7.54551C13.7719 7.54036 13.7301 7.54605 13.6919 7.562C13.6729 7.58732 13.6591 7.61617 13.6514 7.64686C13.6437 7.67755 13.6422 7.70946 13.6469 7.74075C13.65 7.75908 13.6552 7.77742 13.6625 7.79575C13.6956 7.82078 13.7347 7.83674 13.7758 7.84205C13.817 7.84736 13.8588 7.84182 13.8972 7.826Z" fill="white"/>
<path d="M16.7205 5.06775C16.8213 4.96141 16.9955 4.98341 17.067 5.11175C17.078 5.13069 17.0914 5.1478 17.1073 5.16308C17.2137 5.26391 17.1917 5.43808 17.0633 5.5105C17.044 5.52049 17.0266 5.53384 17.012 5.54991C16.9885 5.57446 16.9596 5.59315 16.9276 5.60449C16.8956 5.61584 16.8614 5.61952 16.8277 5.61524C16.794 5.61096 16.7617 5.59884 16.7336 5.57986C16.7054 5.56087 16.6821 5.53555 16.6655 5.50591C16.6552 5.48653 16.6416 5.46914 16.6252 5.45458C16.6006 5.4311 16.5819 5.40219 16.5706 5.37018C16.5592 5.33816 16.5556 5.30394 16.5598 5.27024C16.5641 5.23655 16.5762 5.20433 16.5952 5.17616C16.6142 5.148 16.6395 5.12468 16.6692 5.10808C16.6886 5.09782 16.7059 5.08416 16.7205 5.06775Z" fill="white"/>
<path fill-rule="evenodd" clip-rule="evenodd" d="M17.4494 4.85692C17.5178 4.92947 17.5693 5.01627 17.6002 5.11109C17.6311 5.2059 17.6406 5.30638 17.6281 5.40532C17.6156 5.50425 17.5813 5.59918 17.5277 5.6833C17.4741 5.76742 17.4026 5.83863 17.3183 5.89184C17.2457 5.96009 17.159 6.01145 17.0643 6.04226C16.9696 6.07306 16.8692 6.08254 16.7704 6.07001C16.6716 6.05748 16.5767 6.02326 16.4927 5.9698C16.4087 5.91633 16.3375 5.84495 16.2843 5.76075C16.2158 5.68826 16.1642 5.60152 16.1333 5.50674C16.1023 5.41196 16.0927 5.31151 16.1051 5.21258C16.1176 5.11365 16.1518 5.0187 16.2052 4.93454C16.2587 4.85039 16.3302 4.77912 16.4144 4.72584C16.487 4.65742 16.5738 4.60591 16.6686 4.57501C16.7634 4.54411 16.8639 4.53458 16.9628 4.54711C17.0618 4.55964 17.1567 4.59392 17.2408 4.64748C17.3249 4.70105 17.3962 4.77257 17.4494 4.85692ZM16.969 5.44084C16.988 5.41552 17.0017 5.38667 17.0095 5.35598C17.0172 5.32529 17.0187 5.29337 17.0139 5.26209C17.0107 5.24326 17.0054 5.22483 16.9984 5.20709C16.9653 5.18205 16.9262 5.16609 16.885 5.16078C16.8439 5.15548 16.8021 5.16101 16.7637 5.17684C16.7388 5.21002 16.723 5.24912 16.7179 5.29027C16.7127 5.33143 16.7184 5.37322 16.7344 5.4115C16.7675 5.43639 16.8066 5.45218 16.8478 5.45733C16.889 5.46247 16.9307 5.45679 16.969 5.44084Z" fill="white"/>
<path d="M17.057 9.72992C17.0805 9.70515 17.1094 9.68624 17.1414 9.67472C17.1735 9.66319 17.2078 9.65937 17.2416 9.66356C17.2755 9.66776 17.3078 9.67985 17.3361 9.69886C17.3644 9.71787 17.3878 9.74327 17.4045 9.773C17.4148 9.79256 17.428 9.80997 17.4439 9.82525C17.5502 9.92608 17.5282 10.1002 17.4008 10.1717C17.3814 10.182 17.364 10.1957 17.3495 10.2121C17.326 10.2368 17.297 10.2557 17.2649 10.2671C17.2328 10.2786 17.1984 10.2823 17.1646 10.278C17.1308 10.2737 17.0984 10.2616 17.0702 10.2425C17.042 10.2234 17.0186 10.1979 17.002 10.1681C16.9918 10.1487 16.9781 10.1313 16.9617 10.1167C16.937 10.0933 16.9181 10.0643 16.9067 10.0322C16.8952 10.0001 16.8915 9.96573 16.8958 9.9319C16.9 9.89808 16.9122 9.86574 16.9313 9.8375C16.9504 9.80925 16.9759 9.7859 17.0057 9.76933C17.025 9.75934 17.0424 9.746 17.057 9.72992Z" fill="white"/>
<path fill-rule="evenodd" clip-rule="evenodd" d="M17.7856 9.51817C17.8543 9.59066 17.906 9.67747 17.937 9.77234C17.9681 9.86721 17.9778 9.96779 17.9653 10.0668C17.9529 10.1659 17.9186 10.261 17.8651 10.3452C17.8115 10.4294 17.7399 10.5007 17.6555 10.554C17.5829 10.6226 17.496 10.6742 17.4011 10.7052C17.3062 10.7362 17.2056 10.7458 17.1066 10.7333C17.0075 10.7207 16.9125 10.6864 16.8283 10.6327C16.7441 10.5791 16.6728 10.5074 16.6196 10.4229C16.5512 10.3504 16.4997 10.2636 16.4688 10.1687C16.4379 10.0739 16.4284 9.97345 16.4409 9.87452C16.4534 9.77558 16.4877 9.68065 16.5413 9.59653C16.5948 9.51242 16.6664 9.4412 16.7507 9.388C16.8232 9.31937 16.91 9.26766 17.0049 9.23659C17.0998 9.20552 17.2003 9.19586 17.2994 9.20831C17.3984 9.22075 17.4935 9.255 17.5777 9.30857C17.662 9.36215 17.7333 9.43373 17.7865 9.51817H17.7856ZM17.3053 10.103C17.3336 10.0649 17.3498 10.0193 17.352 9.97192C17.3532 9.93665 17.3476 9.90148 17.3355 9.86833C17.2975 9.84005 17.2518 9.82378 17.2045 9.82158C17.1691 9.82068 17.134 9.82659 17.1009 9.839C17.0728 9.87681 17.0565 9.92211 17.0541 9.96917C17.0528 10.0047 17.0584 10.0402 17.0706 10.0737C17.1088 10.1016 17.1544 10.1176 17.2017 10.1195C17.237 10.1207 17.2721 10.1151 17.3053 10.103Z" fill="white"/>
</svg>
