<svg width="30" height="30" viewBox="0 0 30 30" fill="none" xmlns="http://www.w3.org/2000/svg">
<path fill-rule="evenodd" clip-rule="evenodd" d="M15 26.9995C13.2239 26.9995 11.7091 26.9632 10.439 26.9093V3.09023C11.9585 3.02807 13.4792 2.99802 15 3.0001C18.4395 3.0001 20.8976 3.13557 22.4993 3.2721C24.2684 3.4225 25.6067 4.79636 25.736 6.54409C25.8648 8.28648 26 11.0534 26 15.0001C26 18.9467 25.8648 21.7136 25.736 23.456C25.6072 25.2037 24.2684 26.5776 22.4993 26.728C20.8976 26.8645 18.439 26.9995 15 26.9995ZM12.8537 8.59954C12.8537 8.31665 12.9667 8.04534 13.168 7.8453C13.3692 7.64526 13.6422 7.53288 13.9268 7.53288H20.3659C20.6505 7.53288 20.9234 7.64526 21.1247 7.8453C21.326 8.04534 21.439 8.31665 21.439 8.59954C21.439 8.88244 21.326 9.15375 21.1247 9.35379C20.9234 9.55383 20.6505 9.66621 20.3659 9.66621H13.9268C13.6422 9.66621 13.3692 9.55383 13.168 9.35379C12.9667 9.15375 12.8537 8.88244 12.8537 8.59954ZM13.9268 12.3329C13.6422 12.3329 13.3692 12.4452 13.168 12.6453C12.9667 12.8453 12.8537 13.1166 12.8537 13.3995C12.8537 13.6824 12.9667 13.9537 13.168 14.1538C13.3692 14.3538 13.6422 14.4662 13.9268 14.4662H17.1463C17.431 14.4662 17.7039 14.3538 17.9052 14.1538C18.1064 13.9537 18.2195 13.6824 18.2195 13.3995C18.2195 13.1166 18.1064 12.8453 17.9052 12.6453C17.7039 12.4452 17.431 12.3329 17.1463 12.3329H13.9268ZM7.50068 3.27157C7.89167 3.23779 8.33454 3.20526 8.82927 3.17397V26.8256C8.38606 26.7977 7.94317 26.765 7.50068 26.7275C5.73156 26.5771 4.39332 25.2032 4.264 23.4555C4.13522 21.7131 4 18.9462 4 14.9995C4 11.0529 4.13522 8.28595 4.264 6.54355C4.39278 4.79636 5.73156 3.42197 7.50068 3.27157Z" fill="#008069"/>
</svg>
