<svg width="12" height="14" viewBox="0 0 12 14" fill="none" xmlns="http://www.w3.org/2000/svg">
<path d="M8.85714 3.66667C8.85714 4.37391 8.55612 5.05219 8.02031 5.55229C7.48449 6.05238 6.75776 6.33333 6 6.33333C5.24224 6.33333 4.51551 6.05238 3.97969 5.55229C3.44388 5.05219 3.14286 4.37391 3.14286 3.66667C3.14286 2.95942 3.44388 2.28115 3.97969 1.78105C4.51551 1.28095 5.24224 1 6 1C6.75776 1 7.48449 1.28095 8.02031 1.78105C8.55612 2.28115 8.85714 2.95942 8.85714 3.66667ZM6 8.33333C4.67392 8.33333 3.40215 8.825 2.46447 9.70017C1.52678 10.5753 1 11.7623 1 13H11C11 11.7623 10.4732 10.5753 9.53553 9.70017C8.59785 8.825 7.32608 8.33333 6 8.33333Z" stroke="white" stroke-opacity="0.6" stroke-width="1.5" stroke-linecap="round" stroke-linejoin="round"/>
</svg>
