<svg width="20" height="24" viewBox="0 0 20 24" fill="none" xmlns="http://www.w3.org/2000/svg">
<path d="M0 2.57143C0 1.88944 0.263392 1.23539 0.732233 0.753154C1.20107 0.270918 1.83696 0 2.5 0H12.2917C12.6473 0 12.9995 0.0720546 13.3281 0.21205C13.6567 0.352045 13.9553 0.557239 14.2067 0.815917C14.4582 1.07459 14.6577 1.38169 14.7938 1.71967C14.9299 2.05765 15 2.41989 15 2.78571V9.42857H17.2917C17.6473 9.42857 17.9995 9.50063 18.3281 9.64062C18.6567 9.78062 18.9553 9.98581 19.2067 10.2445C19.4582 10.5032 19.6577 10.8103 19.7938 11.1482C19.9299 11.4862 20 11.8485 20 12.2143V23.1429C20 23.3702 19.9122 23.5882 19.7559 23.7489C19.5996 23.9097 19.3877 24 19.1667 24H15.8333V20.1429C15.8333 19.8019 15.7016 19.4748 15.4672 19.2337C15.2328 18.9926 14.9149 18.8571 14.5833 18.8571H5.41667C5.08515 18.8571 4.7672 18.9926 4.53278 19.2337C4.29836 19.4748 4.16667 19.8019 4.16667 20.1429V24H0.833333C0.61232 24 0.400358 23.9097 0.244078 23.7489C0.0877975 23.5882 0 23.3702 0 23.1429V2.57143ZM14.1667 20.5714V24H10.8333V20.5714H14.1667ZM9.16667 20.5714V24H5.83333V20.5714H9.16667ZM6.66667 5.57143C6.66667 5.23044 6.53497 4.90341 6.30055 4.66229C6.06613 4.42117 5.74819 4.28571 5.41667 4.28571C5.08515 4.28571 4.7672 4.42117 4.53278 4.66229C4.29836 4.90341 4.16667 5.23044 4.16667 5.57143C4.16667 5.91242 4.29836 6.23945 4.53278 6.48057C4.7672 6.72168 5.08515 6.85714 5.41667 6.85714C5.74819 6.85714 6.06613 6.72168 6.30055 6.48057C6.53497 6.23945 6.66667 5.91242 6.66667 5.57143ZM6.66667 9.85714C6.66667 9.51615 6.53497 9.18912 6.30055 8.94801C6.06613 8.70689 5.74819 8.57143 5.41667 8.57143C5.08515 8.57143 4.7672 8.70689 4.53278 8.94801C4.29836 9.18912 4.16667 9.51615 4.16667 9.85714C4.16667 10.1981 4.29836 10.5252 4.53278 10.7663C4.7672 11.0074 5.08515 11.1429 5.41667 11.1429C5.74819 11.1429 6.06613 11.0074 6.30055 10.7663C6.53497 10.5252 6.66667 10.1981 6.66667 9.85714ZM5.41667 15.4286C5.74819 15.4286 6.06613 15.2931 6.30055 15.052C6.53497 14.8109 6.66667 14.4838 6.66667 14.1429C6.66667 13.8019 6.53497 13.4748 6.30055 13.2337C6.06613 12.9926 5.74819 12.8571 5.41667 12.8571C5.08515 12.8571 4.7672 12.9926 4.53278 13.2337C4.29836 13.4748 4.16667 13.8019 4.16667 14.1429C4.16667 14.4838 4.29836 14.8109 4.53278 15.052C4.7672 15.2931 5.08515 15.4286 5.41667 15.4286ZM10.8333 5.57143C10.8333 5.23044 10.7016 4.90341 10.4672 4.66229C10.2328 4.42117 9.91485 4.28571 9.58333 4.28571C9.25181 4.28571 8.93387 4.42117 8.69945 4.66229C8.46503 4.90341 8.33333 5.23044 8.33333 5.57143C8.33333 5.91242 8.46503 6.23945 8.69945 6.48057C8.93387 6.72168 9.25181 6.85714 9.58333 6.85714C9.91485 6.85714 10.2328 6.72168 10.4672 6.48057C10.7016 6.23945 10.8333 5.91242 10.8333 5.57143ZM9.58333 11.1429C9.91485 11.1429 10.2328 11.0074 10.4672 10.7663C10.7016 10.5252 10.8333 10.1981 10.8333 9.85714C10.8333 9.51615 10.7016 9.18912 10.4672 8.94801C10.2328 8.70689 9.91485 8.57143 9.58333 8.57143C9.25181 8.57143 8.93387 8.70689 8.69945 8.94801C8.46503 9.18912 8.33333 9.51615 8.33333 9.85714C8.33333 10.1981 8.46503 10.5252 8.69945 10.7663C8.93387 11.0074 9.25181 11.1429 9.58333 11.1429ZM10.8333 14.1429C10.8333 13.8019 10.7016 13.4748 10.4672 13.2337C10.2328 12.9926 9.91485 12.8571 9.58333 12.8571C9.25181 12.8571 8.93387 12.9926 8.69945 13.2337C8.46503 13.4748 8.33333 13.8019 8.33333 14.1429C8.33333 14.4838 8.46503 14.8109 8.69945 15.052C8.93387 15.2931 9.25181 15.4286 9.58333 15.4286C9.91485 15.4286 10.2328 15.2931 10.4672 15.052C10.7016 14.8109 10.8333 14.4838 10.8333 14.1429ZM13.75 15.4286C14.0815 15.4286 14.3995 15.2931 14.6339 15.052C14.8683 14.8109 15 14.4838 15 14.1429C15 13.8019 14.8683 13.4748 14.6339 13.2337C14.3995 12.9926 14.0815 12.8571 13.75 12.8571C13.4185 12.8571 13.1005 12.9926 12.8661 13.2337C12.6317 13.4748 12.5 13.8019 12.5 14.1429C12.5 14.4838 12.6317 14.8109 12.8661 15.052C13.1005 15.2931 13.4185 15.4286 13.75 15.4286Z" fill="#F2BB16"/>
</svg>
